<svg version="1" xmlns="http://www.w3.org/2000/svg" width="800" height="800" viewBox="0 0 600.000000 600.000000"><path d="M27 300v171.1l76.3-.4c41.9-.1 77.1-.6 78.3-.9 1.2-.4 4.5-.9 7.4-1.3 7-.9 23.9-5.7 33.6-9.5 18.3-7.3 38.7-20.2 53-33.6 6.4-6 5.7-6 11.6-.3 14.9 14.4 35.8 27.3 56.9 35.2 11.3 4.3 18.9 6.3 30.8 8.3 1.8.3 4.3.8 5.5 1.1 1.1.3 10.2.6 20.1.8 18.2.3 26.3-.5 41-4 3.9-.9 7.5-1.8 8-1.9 12-2.6 41.2-16.6 51.9-24.9 26.1-20.3 41.4-38.4 54.6-64.7 4.4-8.7 12.5-32.1 13.3-38.5.3-2.2.8-4.7 1.1-5.5 2.3-7 3-40.7 1-54.5-3.2-22.5-9.7-41.4-21.8-63-14.9-26.5-42.5-52.5-71.4-66.9-12.9-6.5-32.8-13-45.7-15.1-2.2-.4-6.5-1-9.5-1.5-12.4-2-42.7-.3-58.5 3.3-28 6.4-57.8 22.7-79.2 43.6-3.9 3.8-4.3 4-5.5 2.3-2.4-3.3-18.1-16.3-26.5-21.8-20.4-13.6-41.4-21.8-68.8-27-2.2-.4-38.5-.9-80.7-1.1l-76.8-.4V300zm152.5-71c16.6 5.3 27.7 13.1 37.9 26.5 33.6 44.3 9 106.6-45.9 116.1-2.2.4-13.4.8-25 .8l-21 .1-.1-73.4-.1-73.3 23.6.4c21 .5 24.4.8 30.6 2.8zm237.9-1.5c13.7 2.9 26.1 9.9 36.6 20.5 8.8 8.9 14.8 18.5 18.6 30.1 2.4 7.3 2.8 10 2.8 21.4.1 13.8-1.3 21.4-5.7 30.5-18.7 38.9-63.3 53.4-102.1 33.3-2.7-1.4-5.6-3.1-6.3-3.9-.8-.8-1.7-1.4-2.1-1.4-1.2 0-9.9-8.6-14.2-14.1-6.2-7.9-11.4-19-13.6-29.4-1.1-5.4-1.3-20.9-.3-26 .6-2.8 1.2-6 1.5-7.1.9-4.6 6.2-16.2 9.9-21.9 10.8-16.3 30.1-29.4 47.3-32.1 2.1-.3 3.9-.7 4-.9.6-.6 20.4.3 23.6 1z"/></svg>