<svg viewBox="0 0 131 42" xmlns="http://www.w3.org/2000/svg" xml:space="preserve" style="fill-rule:evenodd;clip-rule:evenodd"><path d="M.5.5H116c8.008 0 14.5 6.492 14.5 14.5v26.5H15C6.992 41.5.5 35.008.5 27V.5Z" style="fill:#fff;fill-rule:nonzero;stroke:#000;stroke-width:1px"/><path d="M44.196 14.365c.396 0 .724-.164.985-.494.264-.332.396-.828.396-1.486 0-.402-.058-.747-.175-1.035-.22-.555-.622-.833-1.206-.833-.587 0-.99.293-1.206.88-.117.313-.175.712-.175 1.195 0 .389.058.72.175.992.22.521.622.781 1.206.781ZM42 9.92h.825v.668c.169-.229.355-.407.556-.532a1.793 1.793 0 0 1 1.008-.282c.572 0 1.057.219 1.456.658.399.436.599 1.06.599 1.873 0 1.098-.288 1.882-.863 2.352a1.948 1.948 0 0 1-1.272.447c-.38 0-.699-.083-.957-.249-.15-.094-.318-.256-.504-.485v2.574H42V9.92ZM47.076 9.896h.805v.87c.066-.169.228-.374.486-.616a1.252 1.252 0 0 1 .971-.362c.037.003.102.009.193.019v.894a1.138 1.138 0 0 0-.142-.019 1.83 1.83 0 0 0-.136-.005c-.428 0-.756.138-.985.414a1.429 1.429 0 0 0-.344.946v2.898h-.848V9.896ZM51.883 14.389c.562 0 .947-.212 1.154-.635.211-.427.316-.9.316-1.421 0-.47-.076-.853-.226-1.148-.239-.464-.651-.696-1.235-.696-.518 0-.895.197-1.131.593-.236.395-.353.872-.353 1.43 0 .536.117.983.353 1.341.236.357.61.536 1.122.536Zm.033-4.639c.65 0 1.2.217 1.649.649.449.433.674 1.07.674 1.911 0 .812-.198 1.483-.594 2.013-.396.53-1.01.795-1.843.795-.694 0-1.245-.234-1.654-.701-.408-.47-.612-1.101-.612-1.891 0-.847.215-1.521.645-2.023.431-.502 1.009-.753 1.735-.753ZM55.403 12.474c0 .54.115.991.344 1.355.229.364.597.546 1.103.546.392 0 .714-.168.966-.504.254-.338.381-.823.381-1.453 0-.637-.13-1.107-.391-1.412a1.217 1.217 0 0 0-.966-.461 1.28 1.28 0 0 0-1.041.49c-.264.326-.396.806-.396 1.439Zm1.277-2.667c.387 0 .71.081.971.244.151.094.322.259.513.494V8h.816v6.935h-.764v-.701c-.198.31-.432.534-.702.672a2.01 2.01 0 0 1-.928.207c-.562 0-1.05-.235-1.461-.705-.411-.474-.617-1.103-.617-1.887 0-.734.187-1.369.561-1.905.376-.54.914-.809 1.611-.809ZM60.7 9.896v3.345c0 .257.041.467.123.63.15.302.432.452.843.452.591 0 .993-.263 1.207-.79.116-.283.174-.67.174-1.162V9.896h.848v5.039h-.801l.009-.744c-.11.192-.246.353-.41.485-.323.263-.716.395-1.178.395-.719 0-1.209-.24-1.47-.72-.141-.257-.212-.6-.212-1.03V9.896h.867ZM66.784 9.75c.569 0 1.031.138 1.386.414.358.276.573.751.645 1.426h-.825a1.495 1.495 0 0 0-.344-.772c-.179-.207-.466-.31-.862-.31-.54 0-.927.263-1.159.79-.151.342-.226.764-.226 1.266 0 .505.107.929.32 1.275.214.345.55.517 1.009.517.351 0 .629-.107.834-.32.207-.216.35-.511.428-.884h.825c-.094.668-.33 1.157-.707 1.467-.377.308-.859.462-1.446.462-.66 0-1.186-.24-1.579-.72-.393-.483-.589-1.086-.589-1.807 0-.884.215-1.573.646-2.065.43-.493.978-.739 1.644-.739ZM71.379 9.783c.358 0 .705.085 1.041.254.337.166.593.383.769.649.169.254.282.551.339.89.05.232.075.602.075 1.11h-3.699c.016.511.137.922.363 1.233.226.307.576.461 1.051.461.443 0 .796-.146 1.06-.438a1.47 1.47 0 0 0 .321-.588h.834a1.767 1.767 0 0 1-.222.621 2.15 2.15 0 0 1-.415.555c-.257.251-.576.42-.956.508a2.92 2.92 0 0 1-.693.075 2.128 2.128 0 0 1-1.597-.682c-.437-.458-.655-1.097-.655-1.919 0-.809.22-1.466.659-1.971.44-.505 1.015-.758 1.725-.758Zm1.352 2.23c-.034-.367-.114-.66-.24-.88-.232-.407-.62-.611-1.164-.611a1.29 1.29 0 0 0-.98.423c-.264.279-.404.635-.419 1.068h2.803ZM74.801 12.474c0 .54.114.991.343 1.355.23.364.597.546 1.103.546.393 0 .715-.168.966-.504.255-.338.382-.823.382-1.453 0-.637-.13-1.107-.391-1.412-.261-.307-.583-.461-.966-.461-.427 0-.775.163-1.042.49-.263.326-.395.806-.395 1.439Zm1.277-2.667c.386 0 .71.081.97.244.151.094.322.259.514.494V8h.815v6.935h-.763v-.701c-.198.31-.432.534-.702.672-.271.138-.58.207-.929.207-.562 0-1.049-.235-1.461-.705-.411-.474-.617-1.103-.617-1.887 0-.734.187-1.369.561-1.905.377-.54.914-.809 1.612-.809ZM81.483 8h.825v2.508c.185-.242.407-.425.665-.551.257-.128.537-.193.838-.193.629 0 1.138.217 1.527.65.393.429.589 1.064.589 1.905 0 .797-.193 1.458-.579 1.985-.387.527-.922.791-1.607.791-.384 0-.707-.093-.971-.278a2.337 2.337 0 0 1-.504-.527v.645h-.783V8Zm2.206 6.347c.458 0 .801-.182 1.027-.546.229-.364.344-.844.344-1.44 0-.53-.115-.969-.344-1.317-.226-.348-.561-.522-1.004-.522-.386 0-.725.142-1.017.428-.29.285-.434.756-.434 1.411 0 .474.06.858.179 1.153.223.555.639.833 1.249.833ZM89.688 9.896h.938c-.12.323-.385 1.06-.797 2.211-.307.866-.565 1.572-.772 2.117-.491 1.286-.836 2.07-1.037 2.353-.201.282-.547.423-1.037.423-.119 0-.212-.005-.278-.014a2.203 2.203 0 0 1-.236-.052v-.771a3.3 3.3 0 0 0 .321.075c.066.009.124.014.174.014.157 0 .272-.027.344-.08a.664.664 0 0 0 .189-.188 22.739 22.739 0 0 0 .381-.903l-1.866-5.185h.962l1.352 4.102 1.362-4.102ZM93.275 8h.848v2.578c.201-.254.382-.433.542-.536.273-.179.614-.268 1.023-.268.732 0 1.228.255 1.489.767.141.279.212.666.212 1.162v3.232h-.872v-3.176c0-.37-.047-.641-.141-.814-.154-.276-.443-.414-.867-.414-.352 0-.671.121-.957.362-.286.242-.429.698-.429 1.369v2.673h-.848V8ZM99.109 9.896v3.345c0 .257.041.467.123.63.15.302.432.452.843.452.591 0 .993-.263 1.206-.79.117-.283.175-.67.175-1.162V9.896h.848v5.039h-.801l.009-.744c-.11.192-.246.353-.41.485-.323.263-.716.395-1.178.395-.719 0-1.209-.24-1.47-.72-.141-.257-.212-.6-.212-1.03V9.896h.867ZM103.247 9.896h.839v.715a2.82 2.82 0 0 1 .546-.541 1.65 1.65 0 0 1 .952-.287c.402 0 .726.099.971.297.138.112.264.279.377.498a1.8 1.8 0 0 1 .664-.597c.255-.132.541-.198.858-.198.679 0 1.14.245 1.385.734.132.263.198.618.198 1.063v3.355h-.881v-3.501c0-.335-.085-.566-.254-.691a.987.987 0 0 0-.613-.188c-.333 0-.62.111-.862.334-.239.222-.358.594-.358 1.115v2.931h-.863v-3.289c0-.342-.041-.591-.122-.748-.129-.235-.369-.353-.721-.353-.321 0-.613.124-.877.372-.261.248-.391.696-.391 1.345v2.673h-.848V9.896ZM111.55 13.594c0 .245.09.437.269.579a.997.997 0 0 0 .636.211c.299 0 .588-.069.867-.207.471-.229.707-.604.707-1.124v-.682c-.104.066-.237.12-.4.164a3.315 3.315 0 0 1-.481.094l-.514.066c-.308.041-.539.105-.692.193-.261.148-.392.383-.392.706Zm2.055-1.713c.195-.025.325-.106.391-.244a.743.743 0 0 0 .057-.325c0-.288-.104-.497-.311-.626-.205-.131-.498-.197-.882-.197-.443 0-.757.119-.942.357-.104.132-.171.328-.203.588h-.791c.015-.621.216-1.052.603-1.293.389-.245.84-.367 1.352-.367.594 0 1.076.113 1.447.338.368.226.551.578.551 1.054v2.903c0 .088.018.158.052.212.038.053.115.08.231.08.038 0 .08-.002.127-.005.047-.006.098-.014.151-.023v.625a2.394 2.394 0 0 1-.302.071 2.28 2.28 0 0 1-.282.014c-.292 0-.504-.104-.636-.311a1.174 1.174 0 0 1-.146-.465c-.173.225-.421.421-.745.588a2.31 2.31 0 0 1-1.07.249c-.468 0-.851-.141-1.15-.423a1.427 1.427 0 0 1-.443-1.068c0-.468.147-.83.439-1.087.292-.257.675-.416 1.15-.475l1.352-.17ZM115.886 9.896h.806v.715c.239-.295.492-.506.759-.635a2.02 2.02 0 0 1 .89-.193c.717 0 1.2.249 1.452.748.138.273.207.664.207 1.172v3.232h-.862v-3.176c0-.307-.046-.555-.137-.743-.151-.314-.424-.471-.82-.471-.201 0-.366.021-.495.061a1.275 1.275 0 0 0-.612.414 1.267 1.267 0 0 0-.278.518 3.537 3.537 0 0 0-.062.757v2.64h-.848V9.896ZM17.961 24.158a9.448 9.448 0 0 0 11.889 0l-1.34-1.655a7.317 7.317 0 0 1-9.209 0l-1.34 1.655ZM19.404 17.637h2.13v2.877h-2.13zM26.012 17.637h2.13v2.877h-2.13z" style="fill-rule:nonzero"/><path d="M35 21.5C35 27.851 29.851 33 23.5 33S12 27.851 12 21.5 17.149 10 23.5 10 35 15.149 35 21.5Zm-2.129 0a9.372 9.372 0 1 1-18.743-.001 9.372 9.372 0 0 1 18.743.001Z"/><path d="M48.29 22.178c.99 0 1.798.263 2.425.79.632.521.949 1.388.949 2.601v6.516h-2.566V26.2c0-.509-.067-.9-.202-1.172-.246-.497-.715-.746-1.406-.746-.849 0-1.432.364-1.748 1.092-.164.385-.247.876-.247 1.474v5.237H43v-9.658h2.416v1.411c.323-.497.627-.855.914-1.074.516-.391 1.169-.586 1.96-.586ZM57.56 30.301c.733 0 1.295-.264 1.688-.79.392-.527.588-1.276.588-2.246 0-.971-.196-1.716-.588-2.237-.393-.527-.955-.79-1.688-.79-.732 0-1.297.263-1.695.79-.393.521-.589 1.266-.589 2.237 0 .97.196 1.719.589 2.246.398.526.963.79 1.695.79Zm4.903-3.036c0 1.42-.404 2.636-1.212 3.648-.808 1.006-2.036 1.51-3.682 1.51s-2.873-.504-3.681-1.51c-.809-1.012-1.213-2.228-1.213-3.648 0-1.397.404-2.607 1.213-3.631.808-1.024 2.035-1.536 3.681-1.536s2.874.512 3.682 1.536c.808 1.024 1.212 2.234 1.212 3.631ZM62.561 24.3v-1.802h1.335v-2.699h2.478v2.699h1.556V24.3h-1.556v5.113c0 .397.05.645.15.746.099.094.404.142.913.142h.238l.255-.018v1.891l-1.187.044c-1.183.042-1.991-.165-2.425-.621-.281-.29-.422-.737-.422-1.341V24.3h-1.335ZM77.602 22.196c1.26 0 2.244.459 2.952 1.376.715.917 1.072 2.101 1.072 3.551 0 1.503-.351 2.749-1.054 3.737-.703.988-1.684 1.483-2.944 1.483-.79 0-1.426-.16-1.906-.48-.287-.189-.598-.521-.932-.994v1.216h-2.451V19.018h2.495v4.652c.316-.45.665-.794 1.046-1.03.451-.296 1.025-.444 1.722-.444Zm-.641 8.06c.644 0 1.145-.263 1.502-.79.358-.526.536-1.219.536-2.077 0-.686-.088-1.255-.263-1.704-.334-.853-.949-1.279-1.846-1.279-.908 0-1.531.418-1.871 1.252-.176.444-.264 1.018-.264 1.722 0 .829.182 1.515.545 2.06.363.544.917.816 1.661.816ZM83.095 33.941l.316.017c.246.012.48.003.703-.026.222-.03.41-.098.562-.205.147-.1.281-.31.404-.63.129-.319.182-.515.159-.586l-3.515-10.102h2.785l2.091 7.137 1.977-7.137h2.663l-3.286 9.516c-.633 1.835-1.134 2.971-1.503 3.409-.369.444-1.107.666-2.214.666-.223 0-.401-.003-.536-.009-.135 0-.337-.009-.606-.026v-2.024ZM97.783 27.141h3.286l-1.616-5.149-1.67 5.149ZM97.95 19h3.058l4.586 13.085h-2.934l-.835-2.69h-4.771l-.896 2.69h-2.83L97.95 19ZM107.902 19h2.688v13.085h-2.688z" style="fill-rule:nonzero"/><path style="fill-rule:nonzero" d="M106.306 19H112v2.226h-5.694zM106.306 29.862H112v2.226h-5.694z"/></svg>
